HIERARCHY
ROOT Hips
{
 OFFSET 0.000000 0.000000 0.000000
 CHANNELS 6 Xposition Yposition Zposition Yrotation Xrotation Zrotation
 JOINT Chest
 {
  OFFSET 0.000000 9.857222 0.000240
  CHANNELS 3 Yrotation Xrotation Zrotation
  JOINT Chest2
  {
   OFFSET 0.000000 10.876940 -0.000436
   CHANNELS 3 Yrotation Xrotation Zrotation
   JOINT Chest3
   {
    OFFSET 0.000000 9.827798 0.000000
    CHANNELS 3 Yrotation Xrotation Zrotation
    JOINT Chest4
    {
     OFFSET 0.000000 9.827798 0.000000
     CHANNELS 3 Yrotation Xrotation Zrotation
     JOINT Neck
     {
      OFFSET 0.000000 13.831992 0.000000
      CHANNELS 3 Yrotation Xrotation Zrotation
      JOINT Head
      {
       OFFSET 0.000000 9.147643 -0.001036
       CHANNELS 3 Yrotation Xrotation Zrotation
       End Site
       {
        OFFSET 0.000000 17.515799 -0.000541
       }
      }
     }
     JOINT RightCollar
     {
      OFFSET -3.001579 7.717577 0.000000
      CHANNELS 3 Yrotation Xrotation Zrotation
      JOINT RightShoulder
      {
       OFFSET -14.002642 0.000000 0.000000
       CHANNELS 3 Yrotation Xrotation Zrotation
       JOINT RightElbow
       {
        OFFSET -30.053852 0.000000 0.000000
        CHANNELS 3 Yrotation Xrotation Zrotation
        JOINT RightWrist
        {
         OFFSET -24.564923 0.000000 -0.000000
         CHANNELS 3 Yrotation Xrotation Zrotation
         End Site
         {
          OFFSET -18.334355 0.000000 0.000000
         }
        }
       }
      }
     }
     JOINT LeftCollar
     {
      OFFSET 3.001579 7.717577 0.000000
      CHANNELS 3 Yrotation Xrotation Zrotation
      JOINT LeftShoulder
      {
       OFFSET 14.002642 0.000000 0.000000
       CHANNELS 3 Yrotation Xrotation Zrotation
       JOINT LeftElbow
       {
        OFFSET 30.053852 0.000000 0.000000
        CHANNELS 3 Yrotation Xrotation Zrotation
        JOINT LeftWrist
        {
         OFFSET 24.564923 0.000000 -0.000000
         CHANNELS 3 Yrotation Xrotation Zrotation
         End Site
         {
          OFFSET 18.334355 0.000000 0.000000
         }
        }
       }
      }
     }
    }
   }
  }
 }
 JOINT RightHip
 {
  OFFSET -8.003235 -0.001175 -0.000120
  CHANNELS 3 Yrotation Xrotation Zrotation
  JOINT RightKnee
  {
   OFFSET 0.000000 -41.759727 0.000113
   CHANNELS 3 Yrotation Xrotation Zrotation
   JOINT RightAnkle
   {
    OFFSET 0.000000 -40.728748 0.000159
    CHANNELS 3 Yrotation Xrotation Zrotation
    JOINT RightToe
    {
     OFFSET 0.000000 -6.515296 14.732841
     CHANNELS 3 Yrotation Xrotation Zrotation
     End Site
     {
      OFFSET 0.000000 -1.502839 6.412115
     }
    }
   }
  }
 }
 JOINT LeftHip
 {
  OFFSET 8.003235 -0.001175 -0.000120
  CHANNELS 3 Yrotation Xrotation Zrotation
  JOINT LeftKnee
  {
   OFFSET 0.000000 -41.759727 0.000113
   CHANNELS 3 Yrotation Xrotation Zrotation
   JOINT LeftAnkle
   {
    OFFSET 0.000000 -40.728748 0.000159
    CHANNELS 3 Yrotation Xrotation Zrotation
    JOINT LeftToe
    {
     OFFSET 0.000000 -6.515296 14.732841
     CHANNELS 3 Yrotation Xrotation Zrotation
     End Site
     {
      OFFSET 0.000000 -1.502839 6.412115
     }
    }
   }
  }
 }
}
MOTION
Frames: 7
Frame Time: 0.016667
0.000000 88.822259 0.000000 0.000000 -5.826342 0.000000 0.000000 11.116423 0.000000 0.000000 -5.290081 0.000000 0.000000 0.000000 0.000000 0.000000 0.000000 0.000000 0.000000 12.665069 0.000000 0.000000 0.575450 0.000000 0.000000 0.000000 0.000000 0.000000 0.000000 0.000000 2.337306 0.000000 0.000000 -2.337306 0.000000 0.000000 0.000000 0.000000 0.000000 0.000000 0.000000 0.000000 -2.337306 0.000000 0.000000 2.337306 0.000000 0.000000 0.000000 8.578828 0.000000 0.000000 1.905768 0.000000 0.000000 -4.658254 0.000000 0.000000 0.000000 0.000000 0.000000 8.578828 0.000000 0.000000 1.905768 0.000000 0.000000 -4.658254 0.000000 0.000000 0.000000 0.000000
4.010178 90.400887 13.715756 -33.546113 -7.459759 0.803183 2.758125 -4.094046 -0.233370 1.294484 -1.765465 -0.078241 1.294484 -1.765465 -0.078241 0.970560 -1.324271 -0.054936 -2.536349 30.181349 0.542551 -4.590557 19.915080 1.406166 2.793666 22.787047 13.121939 42.768265 -5.070130 78.495721 23.060777 7.203506 9.471078 -0.156224 0.205983 -14.102821 -21.486675 28.962677 -20.878265 -44.251510 17.746668 -71.755776 -45.816181 -4.160314 9.522301 7.518337 4.273009 15.131990 -9.500499 7.916012 -4.633160 1.238736 5.420991 -0.833310 -0.296824 -5.585164 3.174707 -0.012672 0.061251 -0.030452 -29.210694 18.314307 -1.811500 34.193998 1.465638 -8.875227 8.672339 -8.629036 -1.395152 -0.012815 -0.073027 -0.027721
4.001841 90.402597 13.707677 -33.547971 -7.422905 0.799084 2.751675 -4.108360 -0.230434 1.306592 -1.752281 -0.075145 1.306592 -1.752281 -0.075145 0.979652 -1.314379 -0.052607 -2.561853 30.182066 0.550713 -4.637185 19.917530 1.425047 2.851974 22.839488 13.166460 42.653039 -5.227453 78.309180 22.746766 6.815021 9.545021 -0.179432 0.091852 -13.764260 -21.477543 29.016464 -20.848248 -44.037265 18.043492 -71.520874 -46.529401 -3.654142 9.312435 7.474128 4.189947 15.193001 -9.547573 7.887273 -4.629296 1.257044 5.395296 -0.819222 -0.275503 -5.570705 3.165888 -0.014428 0.060546 -0.031865 -29.172753 18.288158 -1.776460 34.185579 1.470490 -8.870326 8.673594 -8.618077 -1.409390 -0.009282 -0.085199 -0.021456
3.995665 90.404938 13.702294 -33.584782 -7.403086 0.791016 2.783610 -4.089104 -0.215902 1.320260 -1.742040 -0.066399 1.320260 -1.742040 -0.066399 0.989929 -1.306681 -0.046031 -2.593730 30.180038 0.553027 -4.694116 19.914855 1.434771 2.885447 22.921047 13.178121 42.663613 -5.311273 78.000293 22.511035 6.287780 9.558295 -0.177517 0.114430 -13.481099 -21.451995 28.938974 -20.812542 -43.645008 18.291925 -71.412509 -47.135482 -2.657853 8.905030 7.428924 4.131656 15.174101 -9.583280 7.883421 -4.627190 1.275732 5.351547 -0.804769 -0.241670 -5.539475 3.158705 -0.015362 0.053496 -0.032477 -29.116467 18.276958 -1.753815 34.186875 1.471594 -8.849056 8.660487 -8.613758 -1.427108 -0.012728 -0.087175 -0.018064
3.984062 90.403732 13.691109 -33.583522 -7.352288 0.758108 2.799665 -4.082279 -0.171669 1.328232 -1.738865 -0.054366 1.328232 -1.738865 -0.054366 0.995942 -1.304274 -0.036991 -2.626669 30.176567 0.548556 -4.751755 19.909261 1.432713 2.901018 23.032105 13.164093 42.801583 -5.338272 77.598759 22.386345 5.461385 9.497326 -0.196793 0.280541 -13.248091 -21.415582 28.810779 -20.775962 -43.421126 18.540480 -71.367596 -47.768385 -1.686398 8.455679 7.364327 4.048333 15.095933 -9.700130 7.864536 -4.606241 1.323534 5.277850 -0.780646 -0.203851 -5.500690 3.143056 -0.020457 0.053381 -0.034925 -29.074378 18.255594 -1.671002 34.195782 1.480363 -8.855001 8.640234 -8.618071 -1.462378 0.028509 -0.078800 0.004754
3.981557 90.402117 13.680994 -33.544090 -7.333611 0.731523 2.793500 -4.071342 -0.123126 1.331915 -1.727588 -0.037661 1.331915 -1.727588 -0.037661 0.998754 -1.295780 -0.024478 -2.661675 30.171649 0.526803 -4.810042 19.900326 1.400452 2.887408 23.168232 13.112351 42.894186 -5.343004 77.241782 22.451234 4.375795 9.302607 -0.288122 0.394932 -13.059481 -21.357337 28.756828 -20.737483 -43.498692 18.840260 -71.253676 -48.588166 -1.069041 7.892172 7.362427 3.873650 15.192297 -9.921912 7.871954 -4.627311 1.426331 5.201843 -0.735495 -0.166031 -5.464518 3.123155 -0.026977 0.056454 -0.037327 -29.117405 18.253233 -1.609397 34.231996 1.495297 -8.880434 8.565062 -8.615315 -1.475116 0.060398 -0.076083 0.021438
3.981325 90.401672 13.659314 -33.444186 -7.259786 0.692801 2.734708 -4.137340 -0.066170 1.334493 -1.723824 -0.017758 1.334493 -1.723824 -0.017758 1.000744 -1.292914 -0.009553 -2.692275 30.181866 0.487573 -4.857282 19.918599 1.335937 2.861299 23.229522 13.020942 42.916639 -5.229633 77.036850 22.780216 2.750762 8.936014 -0.439781 0.364979 -13.023425 -21.347228 28.722386 -20.740821 -43.621935 19.148276 -71.157660 -49.456004 -0.876011 7.581437 7.360038 3.758824 15.224046 -10.213731 7.819302 -4.627966 1.556504 5.131578 -0.697400 -0.141667 -5.424670 3.101905 -0.033498 0.055526 -0.038204 -29.270016 18.190556 -1.533989 34.333286 1.508381 -8.896687 8.499579 -8.601513 -1.507591 0.129748 -0.070752 0.054393
